<?xml version="1.0" standalone="no"?>
<!DOCTYPE svg PUBLIC "-//W3C//DTD SVG 20010904//EN"
 "http://www.w3.org/TR/2001/REC-SVG-20010904/DTD/svg10.dtd">
<svg version="1.0" xmlns="http://www.w3.org/2000/svg"
 width="657.000000pt" height="693.000000pt" viewBox="0 0 657.000000 693.000000"
 preserveAspectRatio="xMidYMid meet">

<g transform="translate(0.000000,693.000000) scale(0.100000,-0.100000)"
fill="#28456C" stroke="none">
<path d="M2830 6237 c-91 -51 -241 -140 -335 -198 -93 -58 -203 -125 -243
-148 -41 -24 -70 -46 -65 -50 18 -16 411 -247 500 -293 l94 -50 132 84 c158
102 304 188 492 292 77 43 144 82 148 86 19 17 -497 370 -541 370 -10 0 -92
-42 -182 -93z"/>
<path d="M3635 5819 c-50 -29 -169 -102 -265 -164 -184 -117 -251 -158 -363
-219 -38 -21 -67 -39 -65 -41 15 -12 672 -406 1138 -682 316 -187 627 -372
690 -410 l115 -69 3 -570 2 -569 -110 -74 c-60 -40 -115 -80 -122 -89 -10 -12
-13 -121 -11 -510 1 -272 4 -497 7 -499 2 -2 130 76 285 174 154 98 392 249
529 335 l249 158 6 322 c4 178 7 656 7 1064 l0 741 -297 173 c-164 96 -581
340 -928 543 -613 360 -749 437 -770 437 -6 0 -51 -23 -100 -51z"/>
<path d="M1250 5285 c-234 -141 -430 -262 -436 -270 -8 -11 -14 -306 -19
-1023 -5 -697 -11 -1033 -19 -1090 l-12 -84 100 -50 c56 -28 166 -92 246 -142
80 -51 179 -111 222 -134 92 -51 216 -103 222 -94 2 4 7 494 11 1089 4 594 11
1086 14 1092 17 27 192 -61 413 -207 101 -67 151 -106 159 -124 9 -21 8 -292
-1 -1122 -7 -601 -11 -1100 -7 -1108 3 -9 49 -38 101 -67 53 -28 190 -109 304
-179 218 -136 387 -230 395 -222 3 3 9 512 13 1132 6 754 12 1130 19 1137 8 8
31 -4 76 -37 36 -26 153 -101 259 -166 107 -65 204 -127 214 -137 18 -17 19
-44 7 -1146 -14 -1428 -15 -2173 -1 -2173 20 0 74 32 155 90 44 31 143 92 220
135 219 123 426 254 452 287 6 9 8 584 4 1653 l-6 1639 -520 308 c-799 474
-2152 1268 -2159 1268 -1 0 -193 -115 -426 -255z"/>
</g>
</svg>
